{"title":"Sinister 2012 R5 LiNE XviD-BiDA","uid":7834049,"size":735991847,"categoryP":"video","categoryS":"movies","magnet":"?xt=urn:btih:b8421ac6a6c46a267154b2cb921cac268e14d7ea&amp;dn=Sinister+2012+R5+LiNE+XviD-BiDA&amp;tr=udp%3A%2F%2Ftracker.openbittorrent.com%3A80&amp;tr=udp%3A%2F%2Fopen.demonii.com%3A1337&amp;tr=udp%3A%2F%2Ftracker.coppersurfer.tk%3A6969&amp;tr=udp%3A%2F%2Fexodus.desync.com%3A6969","seeders":0,"leechers":1,"uploader":"tykoon123","files":-1,"time":1353150243,"description":"Poster: &lt;a href=&quot;\nhttp://imgr.us/images/br4ia2386iwurg7ocffa.jpg&quot; rel=&quot;nofollow&quot; target=&quot;_NEW&quot;&gt;\nhttp://imgr.us/images/br4ia2386iwurg7ocffa.jpg&lt;/a&gt;\n\nInfo:\nV: RUSSiAN\nA: Jinx filtered by INSPiRAL [fine, clean audio].\n\nIMDB: http://www.imdb.com/title/tt1922777/\n\nFormat : AVI\nFormat/Info : Audio Video Interleave\nFile size : 702 MiB\nDuration : 1h 45mn\nOverall bit rate : 934 Kbps\nWriting application : VirtualDubMod 1.5.10.2 (build 2542/release)\nWriting library : VirtualDub build 32817/release\n\nVideo\nID : 0\nFormat : MPEG-4 Visual\nFormat profile : Advanced Simple@L5\nFormat settings, BVOP : 2\nFormat settings, QPel : No\nFormat settings, GMC : No warppoints\nFormat settings, Matrix : Default (MPEG)\nCodec ID : XVID\nCodec ID/Hint : XviD\nDuration : 1h 45mn\nBit rate : 797 Kbps\nWidth : 640 pixels\nHeight : 272 pixels\nDisplay aspect ratio : 2.35:1\nFrame rate : 25.000 fps\nColor space : YUV\nChroma subsampling : 4:2:0\nBit depth : 8 bits\nScan type : Progressive\nCompression mode : Lossy\nBits/(Pixel*Frame) : 0.183\nStream size : 598 MiB (85%)\nWriting library : XviD 1.2.1 (UTC 2008-12-04)\n\nAudio\nID : 1\nFormat : MPEG Audio\nFormat version : Version 1\nFormat profile : Layer 3\nCodec ID : 55\nCodec ID/Hint : MP3\nDuration : 1h 45mn\nBit rate mode : Constant\nBit rate : 128 Kbps\nChannel(s) : 2 channels\nSampling rate : 48.0 KHz\nCompression mode : Lossy\nStream size : 96.2 MiB (14%)\nAlignment : Split accross interleaves\nInterleave, duration : 40 ms (1.00 video frame)\nInterleave, preload duration : 500 ms\n\nScreens: &lt;a href=&quot;\nhttp://imgr.us/images/fbtxyn7pcim7tuqkapvo.png&quot; rel=&quot;nofollow&quot; target=&quot;_NEW&quot;&gt;\nhttp://imgr.us/images/fbtxyn7pcim7tuqkapvo.png&lt;/a&gt; &lt;a href=&quot;\nhttp://imgr.us/images/iqjeletgrup5b5aot140.png&quot; rel=&quot;nofollow&quot; target=&quot;_NEW&quot;&gt;\nhttp://imgr.us/images/iqjeletgrup5b5aot140.png&lt;/a&gt; &lt;a href=&quot;\nhttp://imgr.us/images/kqtd20lxk95sw86pben6.png&quot; rel=&quot;nofollow&quot; target=&quot;_NEW&quot;&gt;\nhttp://imgr.us/images/kqtd20lxk95sw86pben6.png&lt;/a&gt;","torrent":{"xt":"urn:btih:b8421ac6a6c46a267154b2cb921cac268e14d7ea","amp;dn":"Sinister+2012+R5+LiNE+XviD-BiDA","amp;tr":["udp%3A%2F%2Ftracker.openbittorrent.com%3A80","udp%3A%2F%2Fopen.demonii.com%3A1337","udp%3A%2F%2Ftracker.coppersurfer.tk%3A6969","udp%3A%2F%2Fexodus.desync.com%3A6969"],"infoHash":"b8421ac6a6c46a267154b2cb921cac268e14d7ea","infoHashBuffer":{"type":"Buffer","data":[184,66,26,198,166,196,106,38,113,84,178,203,146,28,172,38,142,20,215,234]},"announce":[],"urlList":[]}}